{"title":"Dear Santa 2011 DVDrip English Klam","uid":9215882,"size":1258247480,"categoryP":"video","categoryS":"movies","magnet":"?xt=urn:btih:eef11b04e039a46ddedeeafa4df6a55de784a013&amp;dn=Dear+Santa+2011+DVDrip+English+Klam&amp;tr=udp%3A%2F%2Ftracker.openbittorrent.com%3A80&amp;tr=udp%3A%2F%2Fopen.demonii.com%3A1337&amp;tr=udp%3A%2F%2Ftracker.coppersurfer.tk%3A6969&amp;tr=udp%3A%2F%2Fexodus.desync.com%3A6969","seeders":2,"leechers":0,"uploader":"Klambake","files":-1,"time":1384857352,"description":"With: Amy Acker, David Haydn-Jones and Patrick Creery\n\nDe shopaholic Crystal krijgt van haar ouders een ultimatum voorgelegd: verander je onverantwoordelijk gedrag voor de Kerst of je krijgt geen cent meer. Crystal heeft geen baan en geen romantische vooruitzichten en weet niet wat te doen. Dan vindt ze een brief van de zevenjarige Olivia gericht aan de kerstman, waarin ze vraagt om een nieuwe vrouw voor haar vader Derek, een weduwnaar. Crystal spoort hen op en laat haar goede kant zien door vrijwilligerswerk te verrichten in de gaarkeuken van Derek. De enige die in de weg staat tussen haar en haar pas ontdekte geluk is Dereks jaloerse vriendin.\n\nBeverly Hills 90210 alumni Jason Priestly takes the helm for this warmhearted romantic comedy about a die-hard party girl struggling to change her frivolous ways. Crystal (Amy Acker) comes ..\n &lt;a href=&quot;\nhttp://www.imdb.com/title/tt1893218&quot; rel=&quot;nofollow&quot; target=&quot;_NEW&quot;&gt;\nhttp://www.imdb.com/title/tt1893218&lt;/a&gt;\t\n\n--------------------- Dutch Friends 4ever ---------------------\n---------------------------------------------------------------\n- Bezoek ook eens mijn vrienden op: &lt;a href=&quot; http://www.Film-Test.nl&quot; rel=&quot;nofollow&quot; target=&quot;_NEW&quot;&gt; http://www.Film-Test.nl&lt;/a&gt; --\n----- voor mijn Nederlandse Sync. ondertitels ---- en meer ----\n------- http://www.Film-Test.nl ---- Over Films en meer -------\n---------------------------------------------------------------\n\nGeneral:\n\nComplete name                    : Dear SantaDear Santa.avi\nFormat                           : AVI\nFormat/Info                      : Audio Video Interleave\nFile size                        : 1.17 GiB\nDuration                         : 1h 28mn\nOverall bit rate                 : 1 896 Kbps\n\nVideo:\n\nFormat                           : MPEG-4 Visual\nFormat profile                   : Simple@L3\nFormat settings, BVOP            : No\nFormat settings, QPel            : No\nFormat settings, GMC             : No warppoints\nFormat settings, Matrix          : Default (H.263)\nCodec ID                         : XVID\nCodec ID/Hint                    : XviD\nDuration                         : 1h 28mn\nBit rate                         : 1 662 Kbps\nWidth                            : 704 pixels\nHeight                           : 396 pixels\nDisplay aspect ratio             : 16:9\nFrame rate                       : 25.000 fps\nColor space                      : YUV\nChroma subsampling               : 4:2:0\nBit depth                        : 8 bits\nScan type                        : Progressive\nCompression mode                 : Lossy\nBits/(Pixel*Frame)               : 0.238\nStream size                      : 1.03 GiB (88%)\nWriting library                  : XviD 1.1.2 (UTC 2006-11-01)\n\nAudio:\n\nFormat                           : AC-3\nFormat/Info                      : Audio Coding 3\nMode extension                   : CM (complete main)\nCodec ID                         : 2000\nDuration                         : 1h 28mn\nBit rate mode                    : Constant\nBit rate                         : 224 Kbps\nChannel(s)                       : 2 channels\nChannel positions                : Front: L R\nSampling rate                    : 48.0 KHz\nBit depth                        : 16 bits\nCompression mode                 : Lossy\nStream size                      : 142 MiB (12%)\nAlignment                        : Aligned on interleaves\nInterleave, duration             : 32 ms (0.80 video frame)\nInterleave, preload duration     : 320 ms","torrent":{"xt":"urn:btih:eef11b04e039a46ddedeeafa4df6a55de784a013","amp;dn":"Dear+Santa+2011+DVDrip+English+Klam","amp;tr":["udp%3A%2F%2Ftracker.openbittorrent.com%3A80","udp%3A%2F%2Fopen.demonii.com%3A1337","udp%3A%2F%2Ftracker.coppersurfer.tk%3A6969","udp%3A%2F%2Fexodus.desync.com%3A6969"],"infoHash":"eef11b04e039a46ddedeeafa4df6a55de784a013","infoHashBuffer":{"type":"Buffer","data":[238,241,27,4,224,57,164,109,222,222,234,250,77,246,165,93,231,132,160,19]},"announce":[],"urlList":[]}}